<?xml version="1.0" standalone="no"?>
<!DOCTYPE svg PUBLIC "-//W3C//DTD SVG 20010904//EN"
 "http://www.w3.org/TR/2001/REC-SVG-20010904/DTD/svg10.dtd">
<svg version="1.0" xmlns="http://www.w3.org/2000/svg"
 width="700.000000pt" height="700.000000pt" viewBox="0 0 700.000000 700.000000"
 preserveAspectRatio="xMidYMid meet">
<metadata>
Created by potrace 1.11, written by Peter Selinger 2001-2013
</metadata>
<g transform="translate(0.000000,700.000000) scale(0.100000,-0.100000)"
fill="#000000" stroke="none">
<path d="M3457 6414 c-1 -1 -45 -4 -97 -8 -123 -8 -226 -27 -323 -60 -389
-131 -700 -440 -867 -862 -55 -137 -156 -490 -173 -604 -3 -19 -12 -73 -21
-120 -8 -47 -18 -107 -21 -135 -3 -27 -8 -61 -10 -75 -7 -37 -13 -79 -20 -135
-3 -27 -8 -61 -10 -75 -4 -24 -8 -62 -20 -180 -3 -30 -7 -73 -10 -95 -2 -22
-7 -80 -11 -130 -3 -49 -8 -106 -11 -125 -8 -69 -11 -496 -3 -555 7 -53 11
-79 25 -160 5 -35 26 -108 47 -170 111 -323 384 -573 716 -655 123 -30 167
-35 342 -35 189 0 253 8 385 47 164 48 325 142 457 267 45 42 86 76 92 76 12
0 13 -33 3 -118 -69 -578 -256 -917 -597 -1077 -99 -47 -264 -92 -420 -115
-34 -5 -382 -15 -520 -15 -24 0 -39 -34 -50 -112 -6 -40 -13 -85 -15 -99 -3
-15 -7 -44 -10 -65 -7 -57 -29 -202 -42 -289 -14 -90 -4 -118 53 -134 30 -9
431 -7 544 3 60 5 215 26 300 41 241 43 527 157 720 289 103 70 120 85 241
207 188 188 324 423 423 725 30 91 67 235 80 315 3 19 7 43 10 54 2 11 7 43
11 70 4 28 9 64 11 80 2 17 6 50 9 75 2 25 6 59 9 75 3 17 8 55 11 85 3 30 7
66 10 80 2 14 6 50 10 80 9 84 15 133 20 160 2 14 7 50 10 80 3 30 8 71 10 90
3 19 7 53 9 75 3 22 10 76 15 120 6 44 13 105 16 135 3 30 8 66 10 80 2 14 6
46 9 73 7 56 15 118 21 167 3 19 7 60 10 90 3 30 8 66 10 80 3 14 7 48 10 75
3 28 8 64 10 80 2 17 11 89 19 160 9 72 18 148 21 170 2 22 9 78 15 125 6 47
13 103 16 125 2 22 7 57 9 78 3 20 7 54 10 75 2 20 7 55 9 77 3 22 10 81 16
130 6 50 13 104 15 120 2 17 6 50 9 75 7 61 36 296 42 345 3 22 7 54 8 70 2
17 6 48 10 70 3 22 8 61 11 88 16 147 29 256 40 327 2 14 7 57 11 95 3 39 8
72 9 75 2 3 -5 17 -15 30 l-19 25 -328 1 c-303 1 -330 -1 -355 -18 -15 -10
-30 -33 -34 -51 -8 -35 -8 -33 -19 -132 -17 -152 -25 -156 -109 -54 -144 177
-377 291 -641 315 -69 6 -164 11 -168 8z m308 -684 c128 -27 228 -87 310 -187
116 -141 158 -282 150 -513 -2 -75 -7 -151 -9 -170 -3 -19 -7 -66 -11 -105 -3
-38 -8 -86 -10 -105 -2 -19 -7 -57 -10 -85 -3 -27 -8 -70 -11 -95 -2 -25 -6
-58 -8 -75 -3 -16 -7 -48 -10 -70 -16 -121 -57 -414 -60 -435 -3 -14 -10 -61
-16 -105 -7 -44 -14 -89 -16 -100 -2 -11 -7 -45 -11 -75 -12 -110 -96 -319
-150 -378 -7 -7 -13 -17 -13 -21 0 -12 -121 -135 -170 -173 -96 -74 -197 -119
-316 -142 -81 -15 -240 -13 -304 3 -52 14 -153 52 -160 61 -3 3 -21 16 -41 28
-43 26 -129 112 -165 165 -73 108 -107 239 -108 417 0 111 10 340 19 410 1 14
6 64 10 110 4 47 8 87 10 90 1 3 6 37 9 75 4 39 11 95 16 125 5 30 12 78 15
105 4 28 8 59 10 70 1 11 6 43 10 70 4 28 9 59 11 70 2 11 7 36 10 55 36 219
92 416 147 519 79 149 219 306 333 373 160 94 361 127 539 88z"/>
</g>
</svg>
